<svg xmlns="http://www.w3.org/2000/svg" xmlns:xlink="http://www.w3.org/1999/xlink" viewBox="0 0 304.35 615.37">
  <defs>
    <linearGradient id="Carbon_04" data-name="Carbon 04" x1="543.41" y1="-56.05" x2="599.41" y2="883.95" gradientUnits="userSpaceOnUse">
      <stop offset="0" stop-color="#141414"/>
      <stop offset="0.35" stop-color="#343434"/>
      <stop offset="0.5" stop-color="#424242"/>
      <stop offset="0.65" stop-color="#343434"/>
      <stop offset="1" stop-color="#141414"/>
    </linearGradient>
    <linearGradient id="Carbon_04-2" x1="426" y1="400.5" x2="715.13" y2="400.5" xlink:href="#Carbon_04"/>
    <linearGradient id="New_Gradient_Swatch_7" data-name="New Gradient Swatch 7" x1="549.94" y1="668.72" x2="591.59" y2="668.72" gradientUnits="userSpaceOnUse">
      <stop offset="0" stop-color="#666"/>
      <stop offset="0.07" stop-color="#dadce1"/>
      <stop offset="0.13" stop-color="#cfd1d6"/>
      <stop offset="0.23" stop-color="#b2b4b7"/>
      <stop offset="0.36" stop-color="#848586"/>
      <stop offset="0.44" stop-color="#666"/>
      <stop offset="0.44" stop-color="#707070"/>
      <stop offset="0.48" stop-color="#969798"/>
      <stop offset="0.51" stop-color="#b5b7b9"/>
      <stop offset="0.55" stop-color="#ced0d3"/>
      <stop offset="0.58" stop-color="#dfe2e6"/>
      <stop offset="0.62" stop-color="#eaedf0"/>
      <stop offset="0.66" stop-color="#edf0f4"/>
      <stop offset="1" stop-color="#666"/>
    </linearGradient>
    <linearGradient id="Carbon_04-3" x1="160.76" y1="514.03" x2="141.26" y2="660.53" xlink:href="#Carbon_04"/>
    <radialGradient id="New_Gradient_Swatch_8" data-name="New Gradient Swatch 8" cx="111.45" cy="44.32" r="4.63" gradientUnits="userSpaceOnUse">
      <stop offset="0" stop-color="#292b2d"/>
      <stop offset="1"/>
    </radialGradient>
    <linearGradient id="New_Gradient_Swatch_12" data-name="New Gradient Swatch 12" x1="525" y1="136.63" x2="534.5" y2="136.63" gradientUnits="userSpaceOnUse">
      <stop offset="0" stop-color="#5a5a5b"/>
      <stop offset="0.24" stop-color="#5a5a5b"/>
      <stop offset="0.6" stop-color="#4c4d4e"/>
      <stop offset="1" stop-color="#292b2d"/>
    </linearGradient>
    <radialGradient id="New_Gradient_Swatch_3" data-name="New Gradient Swatch 3" cx="111.45" cy="44.32" r="4.27" gradientUnits="userSpaceOnUse">
      <stop offset="0"/>
      <stop offset="0.18" stop-color="#272a30"/>
      <stop offset="0.49" stop-color="#272a30"/>
      <stop offset="0.56" stop-color="#292b2d"/>
      <stop offset="0.62" stop-color="#272a30"/>
      <stop offset="0.75" stop-color="#272a30"/>
      <stop offset="0.77" stop-color="#272a30"/>
      <stop offset="0.87" stop-color="#15171a"/>
      <stop offset="0.99"/>
    </radialGradient>
    <radialGradient id="New_Gradient_Swatch_8-2" cx="152.95" cy="27.38" r="2.52" xlink:href="#New_Gradient_Swatch_8"/>
    <linearGradient id="New_Gradient_Swatch_4" data-name="New Gradient Swatch 4" x1="568.67" y1="119.7" x2="573.83" y2="119.7" gradientUnits="userSpaceOnUse">
      <stop offset="0" stop-color="#5a5a5b"/>
      <stop offset="0.24" stop-color="#5a5a5b"/>
      <stop offset="0.6" stop-color="#4c4c4e"/>
      <stop offset="1" stop-color="#292b2d"/>
    </linearGradient>
    <radialGradient id="New_Gradient_Swatch_3-2" cx="152.95" cy="27.38" r="2.32" xlink:href="#New_Gradient_Swatch_3"/>
  </defs>
  <title>iphone</title>
  <g style="isolation: isolate">
    <g id="_4" data-name="4">
      <path d="M459.22,92.44H681.93a39.31,39.31,0,0,1,39.26,39.26V668.3a39.31,39.31,0,0,1-39.26,39.25H459.22A39.31,39.31,0,0,1,420,668.3V131.7a39.31,39.31,0,0,1,39.25-39.26Z" transform="translate(-418.3 -92.32)" style="fill-rule: evenodd;fill: url(#Carbon_04)"/>
      <g>
        <path d="M420.44,174.55c-1.17,0-2.14,1.62-2.14,3.59v17.52c0,2,1,3.59,2.14,3.59s2.14-1.62,2.14-3.59V178.14C422.58,176.17,421.62,174.55,420.44,174.55Z" transform="translate(-418.3 -92.32)" style="fill: #2b2b2b"/>
        <path d="M420.44,226.8c-1.17,0-2.14,1.62-2.14,3.59V268.5c0,2,1,3.59,2.14,3.59s2.14-1.62,2.14-3.59V230.39C422.58,228.42,421.62,226.8,420.44,226.8Z" transform="translate(-418.3 -92.32)" style="fill: #2b2b2b"/>
        <path d="M420.44,283.8c-1.17,0-2.14,1.62-2.14,3.59V325.5c0,2,1,3.59,2.14,3.59s2.14-1.62,2.14-3.59V287.39C422.58,285.42,421.62,283.8,420.44,283.8Z" transform="translate(-418.3 -92.32)" style="fill: #2b2b2b"/>
        <path d="M720.51,226.8c-1.18,0-2.14,1.62-2.14,3.59V268.5c0,2,1,3.59,2.14,3.59s2.14-1.62,2.14-3.59V230.39C722.65,228.42,721.69,226.8,720.51,226.8Z" transform="translate(-418.3 -92.32)" style="fill: #2b2b2b"/>
      </g>
      <path d="M681.93,707.68H459.22a39.42,39.42,0,0,1-39.38-39.38V131.7a39.43,39.43,0,0,1,39.38-39.38H681.93a39.43,39.43,0,0,1,39.38,39.38V668.3A39.43,39.43,0,0,1,681.93,707.68ZM459.22,92.57a39.18,39.18,0,0,0-39.13,39.13V668.3a39.17,39.17,0,0,0,39.13,39.13H681.93a39.18,39.18,0,0,0,39.13-39.13V131.7a39.18,39.18,0,0,0-39.13-39.13Z" transform="translate(-418.3 -92.32)" style="fill: #383838"/>
      <g style="mix-blend-mode: multiply">
        <path d="M459.16,92.4h223a39.26,39.26,0,0,1,39.3,39.11V666a39.26,39.26,0,0,1-39.3,39.1h-223a39.26,39.26,0,0,1-39.3-39.1V131.51a39.26,39.26,0,0,1,39.3-39.11Z" transform="translate(-418.3 -92.32)" style="fill: #3d3d3d;fill-rule: evenodd"/>
        <path d="M419.92,131.49a39.13,39.13,0,0,1,29.64-37.84,39.73,39.73,0,0,1,9.67-1.19H682.06a39.76,39.76,0,0,1,9.65,1.18,39.13,39.13,0,0,1,29.67,37.84V666.08a39.13,39.13,0,0,1-29.64,37.83,39.72,39.72,0,0,1-9.67,1.19H459.23a39.73,39.73,0,0,1-9.64-1.18,39.13,39.13,0,0,1-29.67-37.84Z" transform="translate(-418.3 -92.32)" style="fill: #626366;fill-rule: evenodd"/>
        <path d="M420,131.48a39,39,0,0,1,29.65-37.76,40,40,0,0,1,9.67-1.18H682a40.12,40.12,0,0,1,9.64,1.17,39,39,0,0,1,29.68,37.77V666.1a39,39,0,0,1-29.66,37.76A40.07,40.07,0,0,1,682,705H459.31a40.1,40.1,0,0,1-9.64-1.17A39,39,0,0,1,420,666.1Z" transform="translate(-418.3 -92.32)" style="fill: #646567;fill-rule: evenodd"/>
        <path d="M420.05,131.46a38.94,38.94,0,0,1,29.67-37.69,40.44,40.44,0,0,1,9.66-1.16H682a40.46,40.46,0,0,1,9.64,1.16,38.94,38.94,0,0,1,29.7,37.7V666.13a38.93,38.93,0,0,1-29.67,37.69A40.44,40.44,0,0,1,682,705H459.38a40.46,40.46,0,0,1-9.63-1.16,38.94,38.94,0,0,1-29.7-37.7Z" transform="translate(-418.3 -92.32)" style="fill: #656669;fill-rule: evenodd"/>
        <path d="M420.12,131.44a38.84,38.84,0,0,1,29.69-37.62,40.8,40.8,0,0,1,9.66-1.15H681.9a40.83,40.83,0,0,1,9.63,1.15,38.84,38.84,0,0,1,29.72,37.63V666.16a38.84,38.84,0,0,1-29.69,37.62,40.76,40.76,0,0,1-9.66,1.15H459.46a40.82,40.82,0,0,1-9.63-1.15,38.84,38.84,0,0,1-29.71-37.63Z" transform="translate(-418.3 -92.32)" style="fill: #67686a;fill-rule: evenodd"/>
        <path d="M420.18,131.43a38.75,38.75,0,0,1,29.7-37.55,41.16,41.16,0,0,1,9.65-1.14H681.85a41.21,41.21,0,0,1,9.62,1.13,38.75,38.75,0,0,1,29.73,37.56V666.19a38.74,38.74,0,0,1-29.71,37.55,41.19,41.19,0,0,1-9.65,1.14H459.54a41.16,41.16,0,0,1-9.62-1.13,38.74,38.74,0,0,1-29.73-37.56Z" transform="translate(-418.3 -92.32)" style="fill: #696a6c;fill-rule: evenodd"/>
        <path d="M420.25,131.41A38.65,38.65,0,0,1,450,93.93a41.55,41.55,0,0,1,9.65-1.13H681.79a41.61,41.61,0,0,1,9.62,1.12,38.65,38.65,0,0,1,29.75,37.49v534.8a38.65,38.65,0,0,1-29.72,37.48,41.51,41.51,0,0,1-9.65,1.13H459.61A41.57,41.57,0,0,1,450,703.7a38.65,38.65,0,0,1-29.75-37.49Z" transform="translate(-418.3 -92.32)" style="fill: #6a6b6d;fill-rule: evenodd"/>
        <path d="M420.31,131.39A38.56,38.56,0,0,1,450,94a42,42,0,0,1,9.64-1.12h222A42,42,0,0,1,691.35,94a38.56,38.56,0,0,1,29.76,37.42V666.24a38.55,38.55,0,0,1-29.74,37.41,41.91,41.91,0,0,1-9.64,1.12h-222a42,42,0,0,1-9.61-1.11,38.56,38.56,0,0,1-29.76-37.42Z" transform="translate(-418.3 -92.32)" style="fill: #6c6d6f;fill-rule: evenodd"/>
        <path d="M420.38,131.38A38.46,38.46,0,0,1,450.13,94a42.33,42.33,0,0,1,9.63-1.11H681.68a42.42,42.42,0,0,1,9.61,1.1,38.46,38.46,0,0,1,29.78,37.35V666.27a38.46,38.46,0,0,1-29.75,37.34,42.36,42.36,0,0,1-9.63,1.11H459.77a42.37,42.37,0,0,1-9.61-1.1,38.46,38.46,0,0,1-29.78-37.34Z" transform="translate(-418.3 -92.32)" style="fill: #6d6e70;fill-rule: evenodd"/>
        <path d="M420.44,131.36a38.37,38.37,0,0,1,29.77-37.27A42.75,42.75,0,0,1,459.84,93H681.63a42.8,42.8,0,0,1,9.61,1.09A38.37,38.37,0,0,1,721,131.36V666.3a38.36,38.36,0,0,1-29.77,37.27,42.72,42.72,0,0,1-9.63,1.09H459.84a42.84,42.84,0,0,1-9.6-1.09,38.37,38.37,0,0,1-29.79-37.27Z" transform="translate(-418.3 -92.32)" style="fill: #6f7072;fill-rule: evenodd"/>
        <path d="M420.51,131.34a38.28,38.28,0,0,1,29.78-37.2,43.21,43.21,0,0,1,9.62-1.08H681.57a43.23,43.23,0,0,1,9.6,1.08A38.28,38.28,0,0,1,721,131.34v535a38.27,38.27,0,0,1-29.79,37.2,43.14,43.14,0,0,1-9.62,1.08H459.92a43.22,43.22,0,0,1-9.6-1.08,38.27,38.27,0,0,1-29.81-37.2Z" transform="translate(-418.3 -92.32)" style="fill: #707173;fill-rule: evenodd"/>
        <path d="M420.57,131.33a38.18,38.18,0,0,1,29.8-37.13A43.59,43.59,0,0,1,460,93.13H681.52a43.67,43.67,0,0,1,9.6,1.06,38.18,38.18,0,0,1,29.83,37.13v535a38.18,38.18,0,0,1-29.8,37.13,43.57,43.57,0,0,1-9.62,1.07H460a43.65,43.65,0,0,1-9.59-1.06,38.18,38.18,0,0,1-29.83-37.13Z" transform="translate(-418.3 -92.32)" style="fill: #727375;fill-rule: evenodd"/>
        <path d="M420.64,131.31a38.09,38.09,0,0,1,29.82-37.06,44.07,44.07,0,0,1,9.61-1.06H681.46a44.09,44.09,0,0,1,9.59,1.05,38.09,38.09,0,0,1,29.84,37.06V666.38a38.09,38.09,0,0,1-29.82,37.05,44.08,44.08,0,0,1-9.61,1.06H460.07a44.11,44.11,0,0,1-9.59-1.05,38.09,38.09,0,0,1-29.84-37.06Z" transform="translate(-418.3 -92.32)" style="fill: #747577;fill-rule: evenodd"/>
        <path d="M420.71,131.29a38,38,0,0,1,29.83-37,44.46,44.46,0,0,1,9.61-1H681.41a44.58,44.58,0,0,1,9.59,1,38,38,0,0,1,29.86,37V666.41a38,38,0,0,1-29.83,37,44.52,44.52,0,0,1-9.61,1H460.15a44.56,44.56,0,0,1-9.58-1,38,38,0,0,1-29.86-37Z" transform="translate(-418.3 -92.32)" style="fill: #757678;fill-rule: evenodd"/>
        <path d="M420.77,131.28a37.91,37.91,0,0,1,29.85-36.92,45,45,0,0,1,9.6-1H681.35a45,45,0,0,1,9.58,1,37.9,37.9,0,0,1,29.87,36.92V666.43A37.9,37.9,0,0,1,691,703.35a44.92,44.92,0,0,1-9.6,1H460.22a45,45,0,0,1-9.58-1,37.9,37.9,0,0,1-29.87-36.92Z" transform="translate(-418.3 -92.32)" style="fill: #77787a;fill-rule: evenodd"/>
        <path d="M420.84,131.26A37.81,37.81,0,0,1,450.7,94.42a45.44,45.44,0,0,1,9.6-1h221a45.5,45.5,0,0,1,9.58,1,37.81,37.81,0,0,1,29.89,36.85v535.2a37.81,37.81,0,0,1-29.87,36.84,45.45,45.45,0,0,1-9.6,1h-221a45.5,45.5,0,0,1-9.57-1,37.81,37.81,0,0,1-29.89-36.85Z" transform="translate(-418.3 -92.32)" style="fill: #78797b;fill-rule: evenodd"/>
        <path d="M420.9,131.24a37.72,37.72,0,0,1,29.88-36.77,45.89,45.89,0,0,1,9.59-1H681.25a46,46,0,0,1,9.57,1,37.72,37.72,0,0,1,29.91,36.78V666.49a37.72,37.72,0,0,1-29.88,36.77,45.93,45.93,0,0,1-9.59,1H460.38a45.93,45.93,0,0,1-9.57-1,37.72,37.72,0,0,1-29.91-36.78Z" transform="translate(-418.3 -92.32)" style="fill: #7a7b7d;fill-rule: evenodd"/>
        <path d="M421,131.23a37.63,37.63,0,0,1,29.9-36.7,46.37,46.37,0,0,1,9.59-1H681.19a46.49,46.49,0,0,1,9.57,1,37.63,37.63,0,0,1,29.92,36.71V666.52a37.62,37.62,0,0,1-29.9,36.7,46.37,46.37,0,0,1-9.59,1H460.45a46.43,46.43,0,0,1-9.56-1A37.63,37.63,0,0,1,421,666.52Z" transform="translate(-418.3 -92.32)" style="fill: #7b7c7e;fill-rule: evenodd"/>
        <path d="M421,131.21a37.54,37.54,0,0,1,29.91-36.63,46.92,46.92,0,0,1,9.58-1H681.14a47,47,0,0,1,9.56,1,37.54,37.54,0,0,1,29.94,36.64V666.55a37.53,37.53,0,0,1-29.92,36.63,46.89,46.89,0,0,1-9.58,1H460.53a47,47,0,0,1-9.56-1A37.54,37.54,0,0,1,421,666.55Z" transform="translate(-418.3 -92.32)" style="fill: #7d7e80;fill-rule: evenodd"/>
        <path d="M421.09,131.19A37.45,37.45,0,0,1,451,94.63a47.4,47.4,0,0,1,9.58-1H681.08a47.49,47.49,0,0,1,9.56,1,37.45,37.45,0,0,1,30,36.57V666.57a37.44,37.44,0,0,1-29.93,36.56,47.39,47.39,0,0,1-9.58,1H460.6a47.47,47.47,0,0,1-9.55-1,37.45,37.45,0,0,1-30-36.57Z" transform="translate(-418.3 -92.32)" style="fill: #7f7f81;fill-rule: evenodd"/>
        <path d="M421.16,131.18a37.36,37.36,0,0,1,29.95-36.49,47.92,47.92,0,0,1,9.57-1H681a48,48,0,0,1,9.55,1,37.36,37.36,0,0,1,30,36.5V666.6a37.35,37.35,0,0,1-29.95,36.49,47.92,47.92,0,0,1-9.57,1H460.68a48,48,0,0,1-9.55-1,37.36,37.36,0,0,1-30-36.5Z" transform="translate(-418.3 -92.32)" style="fill: #808183;fill-rule: evenodd"/>
        <path d="M421.23,131.16a37.27,37.27,0,0,1,30-36.42,48.49,48.49,0,0,1,9.57-1H681a48.6,48.6,0,0,1,9.55.95,37.27,37.27,0,0,1,30,36.43V666.63a37.26,37.26,0,0,1-30,36.42,48.48,48.48,0,0,1-9.57,1H460.75a48.58,48.58,0,0,1-9.54-.95,37.26,37.26,0,0,1-30-36.42Z" transform="translate(-418.3 -92.32)" style="fill: #828384;fill-rule: evenodd"/>
        <path d="M421.29,131.14a37.18,37.18,0,0,1,30-36.35,49,49,0,0,1,9.56-.94H680.92a49.15,49.15,0,0,1,9.54.93,37.18,37.18,0,0,1,30,36.35V666.66a37.17,37.17,0,0,1-30,36.35,49,49,0,0,1-9.56.94H460.83a49.16,49.16,0,0,1-9.54-.93,37.17,37.17,0,0,1-30-36.35Z" transform="translate(-418.3 -92.32)" style="fill: #838486;fill-rule: evenodd"/>
        <path d="M421.36,131.13a37.09,37.09,0,0,1,30-36.28,49.61,49.61,0,0,1,9.56-.93h220a49.74,49.74,0,0,1,9.54.92,37.09,37.09,0,0,1,30,36.28V666.68a37.08,37.08,0,0,1-30,36.28,49.61,49.61,0,0,1-9.56.93h-220a49.72,49.72,0,0,1-9.54-.92,37.09,37.09,0,0,1-30-36.28Z" transform="translate(-418.3 -92.32)" style="fill: #858687;fill-rule: evenodd"/>
        <path d="M421.42,131.11a37,37,0,0,1,30-36.21A50.17,50.17,0,0,1,461,94H680.81a50.3,50.3,0,0,1,9.53.91,37,37,0,0,1,30,36.21v535.6a37,37,0,0,1-30,36.21,50.14,50.14,0,0,1-9.55.92H461a50.33,50.33,0,0,1-9.53-.91,37,37,0,0,1-30-36.21Z" transform="translate(-418.3 -92.32)" style="fill: #868789;fill-rule: evenodd"/>
        <path d="M421.49,131.09a36.91,36.91,0,0,1,30-36.14,50.82,50.82,0,0,1,9.55-.9h219.7a50.94,50.94,0,0,1,9.53.9,36.91,36.91,0,0,1,30,36.14V666.74a36.9,36.9,0,0,1-30,36.13,50.82,50.82,0,0,1-9.55.9H461.06a50.86,50.86,0,0,1-9.53-.9,36.91,36.91,0,0,1-30-36.14Z" transform="translate(-418.3 -92.32)" style="fill: #88898a;fill-rule: evenodd"/>
        <path d="M421.55,131.08a36.82,36.82,0,0,1,30-36.07,51.42,51.42,0,0,1,9.54-.89H680.7a51.54,51.54,0,0,1,9.52.89,36.82,36.82,0,0,1,30.07,36.07V666.77a36.82,36.82,0,0,1-30,36.06,51.44,51.44,0,0,1-9.54.89H461.14a51.49,51.49,0,0,1-9.52-.89,36.82,36.82,0,0,1-30.06-36.07Z" transform="translate(-418.3 -92.32)" style="fill: #898a8c;fill-rule: evenodd"/>
        <path d="M421.62,131.06a36.73,36.73,0,0,1,30.06-36,52,52,0,0,1,9.53-.88H680.64a52.16,52.16,0,0,1,9.52.88,36.73,36.73,0,0,1,30.08,36V666.79a36.73,36.73,0,0,1-30.06,36,52,52,0,0,1-9.54.88H461.21a52.13,52.13,0,0,1-9.52-.87,36.73,36.73,0,0,1-30.08-36Z" transform="translate(-418.3 -92.32)" style="fill: #8b8c8e;fill-rule: evenodd"/>
        <path d="M421.68,131a36.64,36.64,0,0,1,30.08-35.92,52.69,52.69,0,0,1,9.53-.87h219.3a52.82,52.82,0,0,1,9.51.86A36.64,36.64,0,0,1,720.2,131V666.82a36.64,36.64,0,0,1-30.08,35.92,52.64,52.64,0,0,1-9.53.87H461.29a52.8,52.8,0,0,1-9.51-.86,36.64,36.64,0,0,1-30.1-35.93Z" transform="translate(-418.3 -92.32)" style="fill: #8d8d8f;fill-rule: evenodd"/>
        <path d="M421.75,131a36.55,36.55,0,0,1,30.09-35.85,53.41,53.41,0,0,1,9.52-.86H680.53a53.62,53.62,0,0,1,9.51.85A36.56,36.56,0,0,1,720.15,131V666.85a36.55,36.55,0,0,1-30.09,35.85,53.42,53.42,0,0,1-9.52.86H461.36a53.49,53.49,0,0,1-9.51-.85,36.55,36.55,0,0,1-30.11-35.86Z" transform="translate(-418.3 -92.32)" style="fill: #8e8f91;fill-rule: evenodd"/>
        <path d="M421.81,131a36.47,36.47,0,0,1,30.11-35.78,54,54,0,0,1,9.52-.84h219a54.22,54.22,0,0,1,9.5.84A36.47,36.47,0,0,1,720.11,131V666.88A36.46,36.46,0,0,1,690,702.66a54.1,54.1,0,0,1-9.52.84h-219a54.31,54.31,0,0,1-9.5-.84,36.47,36.47,0,0,1-30.13-35.79Z" transform="translate(-418.3 -92.32)" style="fill: #909192;fill-rule: evenodd"/>
        <path d="M421.88,131A36.38,36.38,0,0,1,452,95.28a54.84,54.84,0,0,1,9.51-.83H680.42a55,55,0,0,1,9.5.83A36.38,36.38,0,0,1,720.07,131V666.91a36.38,36.38,0,0,1-30.13,35.71,54.73,54.73,0,0,1-9.51.83H461.52a54.92,54.92,0,0,1-9.5-.83,36.38,36.38,0,0,1-30.14-35.72Z" transform="translate(-418.3 -92.32)" style="fill: #919294;fill-rule: evenodd"/>
        <path d="M421.94,131a36.29,36.29,0,0,1,30.14-35.64,55.47,55.47,0,0,1,9.51-.82H680.37a55.69,55.69,0,0,1,9.49.82A36.3,36.3,0,0,1,720,131v536a36.29,36.29,0,0,1-30.14,35.64,55.56,55.56,0,0,1-9.51.82H461.59a55.67,55.67,0,0,1-9.49-.82,36.29,36.29,0,0,1-30.16-35.64Z" transform="translate(-418.3 -92.32)" style="fill: #939495;fill-rule: evenodd"/>
        <path d="M422,131a36.21,36.21,0,0,1,30.16-35.57,56.23,56.23,0,0,1,9.5-.81H680.32a56.48,56.48,0,0,1,9.49.8A36.21,36.21,0,0,1,720,131V667a36.2,36.2,0,0,1-30.16,35.57,56.33,56.33,0,0,1-9.5.81H461.67a56.46,56.46,0,0,1-9.49-.8A36.2,36.2,0,0,1,422,667Z" transform="translate(-418.3 -92.32)" style="fill: #949597;fill-rule: evenodd"/>
        <path d="M422.07,130.94a36.12,36.12,0,0,1,30.17-35.5,57.06,57.06,0,0,1,9.5-.8H680.26a57.21,57.21,0,0,1,9.48.79,36.12,36.12,0,0,1,30.19,35.5V667a36.12,36.12,0,0,1-30.17,35.5,57.12,57.12,0,0,1-9.5.8H461.74a57.25,57.25,0,0,1-9.48-.79A36.12,36.12,0,0,1,422.07,667Z" transform="translate(-418.3 -92.32)" style="fill: #969798;fill-rule: evenodd"/>
        <path d="M422.14,130.93A36,36,0,0,1,452.33,95.5a57.8,57.8,0,0,1,9.49-.78H680.21a58,58,0,0,1,9.48.78,36,36,0,0,1,30.21,35.43V667a36,36,0,0,1-30.19,35.43,57.91,57.91,0,0,1-9.49.79H461.82a58,58,0,0,1-9.48-.78A36,36,0,0,1,422.14,667Z" transform="translate(-418.3 -92.32)" style="fill: #98989a;fill-rule: evenodd"/>
        <path d="M422.2,130.91a36,36,0,0,1,30.2-35.36,58.7,58.7,0,0,1,9.49-.77H680.15a58.88,58.88,0,0,1,9.47.77,36,36,0,0,1,30.22,35.36V667a36,36,0,0,1-30.21,35.36,58.74,58.74,0,0,1-9.49.77H461.9a58.8,58.8,0,0,1-9.47-.77A36,36,0,0,1,422.2,667Z" transform="translate(-418.3 -92.32)" style="fill: #999a9b;fill-rule: evenodd"/>
        <path d="M422.27,130.89A35.86,35.86,0,0,1,452.49,95.6a59.55,59.55,0,0,1,9.48-.76H680.1a59.74,59.74,0,0,1,9.47.76,35.87,35.87,0,0,1,30.24,35.29V667.07a35.86,35.86,0,0,1-30.22,35.29,59.49,59.49,0,0,1-9.48.76H462a59.67,59.67,0,0,1-9.47-.76,35.86,35.86,0,0,1-30.24-35.29Z" transform="translate(-418.3 -92.32)" style="fill: #9b9b9d;fill-rule: evenodd"/>
        <path d="M422.33,130.88a35.78,35.78,0,0,1,30.24-35.22,60.38,60.38,0,0,1,9.48-.75H680a60.58,60.58,0,0,1,9.46.75,35.78,35.78,0,0,1,30.26,35.22V667.1a35.77,35.77,0,0,1-30.24,35.22,60.39,60.39,0,0,1-9.48.75H462a60.55,60.55,0,0,1-9.46-.74,35.78,35.78,0,0,1-30.25-35.22Z" transform="translate(-418.3 -92.32)" style="fill: #9c9d9e;fill-rule: evenodd"/>
        <path d="M422.4,130.86a35.69,35.69,0,0,1,30.25-35.15,61.31,61.31,0,0,1,9.47-.74H680a61.51,61.51,0,0,1,9.46.73,35.7,35.7,0,0,1,30.27,35.15V667.13a35.69,35.69,0,0,1-30.26,35.14A61.29,61.29,0,0,1,680,703H462.13a61.49,61.49,0,0,1-9.46-.73,35.69,35.69,0,0,1-30.27-35.15Z" transform="translate(-418.3 -92.32)" style="fill: #9e9fa0;fill-rule: evenodd"/>
        <path d="M422.46,130.84a35.61,35.61,0,0,1,30.27-35.08A62.24,62.24,0,0,1,462.2,95H679.93a62.47,62.47,0,0,1,9.45.72,35.61,35.61,0,0,1,30.29,35.08V667.15a35.61,35.61,0,0,1-30.27,35.07,62.24,62.24,0,0,1-9.47.73H462.2a62.45,62.45,0,0,1-9.45-.72,35.61,35.61,0,0,1-30.29-35.08Z" transform="translate(-418.3 -92.32)" style="fill: #9fa0a1;fill-rule: evenodd"/>
        <path d="M422.53,130.82a35.52,35.52,0,0,1,30.29-35,63.21,63.21,0,0,1,9.46-.71h217.6a63.46,63.46,0,0,1,9.45.71,35.53,35.53,0,0,1,30.3,35V667.18a35.52,35.52,0,0,1-30.29,35,63.22,63.22,0,0,1-9.46.71H462.28a63.46,63.46,0,0,1-9.45-.71,35.53,35.53,0,0,1-30.3-35Z" transform="translate(-418.3 -92.32)" style="fill: #a1a2a3;fill-rule: evenodd"/>
        <path d="M422.59,130.81a35.44,35.44,0,0,1,30.3-34.93,64.22,64.22,0,0,1,9.45-.7H679.82a64.36,64.36,0,0,1,9.44.7,35.44,35.44,0,0,1,30.32,34.94v536.4a35.44,35.44,0,0,1-30.3,34.93,64.21,64.21,0,0,1-9.46.7H462.35a64.47,64.47,0,0,1-9.44-.7,35.44,35.44,0,0,1-30.32-34.94Z" transform="translate(-418.3 -92.32)" style="fill: #a3a3a5;fill-rule: evenodd"/>
        <path d="M422.66,130.79A35.36,35.36,0,0,1,453,95.93a65.21,65.21,0,0,1,9.45-.69H679.77a65.51,65.51,0,0,1,9.44.69,35.36,35.36,0,0,1,30.34,34.87V667.24a35.36,35.36,0,0,1-30.32,34.86,65.29,65.29,0,0,1-9.45.69H462.43a65.37,65.37,0,0,1-9.44-.69,35.36,35.36,0,0,1-30.33-34.87Z" transform="translate(-418.3 -92.32)" style="fill: #a4a5a6;fill-rule: evenodd"/>
        <path d="M422.72,130.77A35.27,35.27,0,0,1,453.06,96a66.35,66.35,0,0,1,9.44-.68H679.71a66.66,66.66,0,0,1,9.43.67,35.28,35.28,0,0,1,30.35,34.8V667.26a35.27,35.27,0,0,1-30.34,34.79,66.23,66.23,0,0,1-9.45.68H462.5a66.46,66.46,0,0,1-9.43-.67,35.27,35.27,0,0,1-30.35-34.8Z" transform="translate(-418.3 -92.32)" style="fill: #a6a6a8;fill-rule: evenodd"/>
        <path d="M422.79,130.76A35.19,35.19,0,0,1,453.14,96a67.48,67.48,0,0,1,9.44-.67H679.66a67.72,67.72,0,0,1,9.43.66,35.19,35.19,0,0,1,30.37,34.73V667.29A35.19,35.19,0,0,1,689.1,702a67.32,67.32,0,0,1-9.44.67H462.58a67.63,67.63,0,0,1-9.43-.66,35.19,35.19,0,0,1-30.37-34.72Z" transform="translate(-418.3 -92.32)" style="fill: #a7a8a9;fill-rule: evenodd"/>
        <path d="M422.85,130.74a35.11,35.11,0,0,1,30.37-34.65,68.57,68.57,0,0,1,9.43-.65h217a68.89,68.89,0,0,1,9.42.65,35.11,35.11,0,0,1,30.38,34.66V667.32A35.1,35.1,0,0,1,689,702a68.46,68.46,0,0,1-9.43.65h-217a68.64,68.64,0,0,1-9.42-.65,35.11,35.11,0,0,1-30.38-34.65Z" transform="translate(-418.3 -92.32)" style="fill: #a9a9ab;fill-rule: evenodd"/>
        <path d="M422.92,130.72A35,35,0,0,1,453.3,96.14a69.78,69.78,0,0,1,9.43-.64H679.55a70.12,70.12,0,0,1,9.42.64,35,35,0,0,1,30.4,34.58V667.35A35,35,0,0,1,689,701.93a69.7,69.7,0,0,1-9.43.64H462.73a70.16,70.16,0,0,1-9.42-.64,35,35,0,0,1-30.4-34.58Z" transform="translate(-418.3 -92.32)" style="fill: #aaabac;fill-rule: evenodd"/>
        <path d="M423,130.71a34.94,34.94,0,0,1,30.4-34.51,71.08,71.08,0,0,1,9.42-.63H679.49a71.32,71.32,0,0,1,9.42.63,35,35,0,0,1,30.42,34.51V667.38a34.94,34.94,0,0,1-30.4,34.51,70.94,70.94,0,0,1-9.42.63H462.81a71.25,71.25,0,0,1-9.41-.63A34.94,34.94,0,0,1,423,667.38Z" transform="translate(-418.3 -92.32)" style="fill: #acadae;fill-rule: evenodd"/>
        <path d="M423,130.69a34.86,34.86,0,0,1,30.41-34.44,72.25,72.25,0,0,1,9.42-.62H679.44a72.64,72.64,0,0,1,9.41.61,34.87,34.87,0,0,1,30.43,34.44V667.4a34.86,34.86,0,0,1-30.42,34.44,72.26,72.26,0,0,1-9.42.62H462.89a72.6,72.6,0,0,1-9.41-.62A34.86,34.86,0,0,1,423,667.4Z" transform="translate(-418.3 -92.32)" style="fill: #aeaeaf;fill-rule: evenodd"/>
        <path d="M423.11,130.67a34.78,34.78,0,0,1,30.43-34.37A73.75,73.75,0,0,1,463,95.7H679.38a74.1,74.1,0,0,1,9.41.6,34.78,34.78,0,0,1,30.45,34.37V667.43A34.78,34.78,0,0,1,688.8,701.8a73.59,73.59,0,0,1-9.41.61H463a74,74,0,0,1-9.4-.6,34.78,34.78,0,0,1-30.45-34.37Z" transform="translate(-418.3 -92.32)" style="fill: #afb0b1;fill-rule: evenodd"/>
        <path d="M423.18,130.66a34.7,34.7,0,0,1,30.45-34.3,75.08,75.08,0,0,1,9.41-.59h216.3a75.44,75.44,0,0,1,9.4.59,34.7,34.7,0,0,1,30.46,34.3v536.8a34.7,34.7,0,0,1-30.45,34.3,74.94,74.94,0,0,1-9.41.59H463a75.41,75.41,0,0,1-9.4-.59,34.7,34.7,0,0,1-30.46-34.3Z" transform="translate(-418.3 -92.32)" style="fill: #b1b1b2;fill-rule: evenodd"/>
        <path d="M423.24,130.64a34.62,34.62,0,0,1,30.46-34.23,76.53,76.53,0,0,1,9.4-.58H679.27a76.9,76.9,0,0,1,9.4.58,34.62,34.62,0,0,1,30.48,34.23V667.49a34.62,34.62,0,0,1-30.46,34.23,76.64,76.64,0,0,1-9.4.58H463.11a77.07,77.07,0,0,1-9.39-.58,34.62,34.62,0,0,1-30.48-34.23Z" transform="translate(-418.3 -92.32)" style="fill: #b2b3b4;fill-rule: evenodd"/>
        <path d="M423.31,130.62a34.54,34.54,0,0,1,30.48-34.16,77.93,77.93,0,0,1,9.4-.57h216a78.37,78.37,0,0,1,9.39.57,34.54,34.54,0,0,1,30.5,34.16V667.51a34.54,34.54,0,0,1-30.48,34.16,77.93,77.93,0,0,1-9.4.57h-216a78.42,78.42,0,0,1-9.39-.57,34.54,34.54,0,0,1-30.49-34.16Z" transform="translate(-418.3 -92.32)" style="fill: #b4b4b5;fill-rule: evenodd"/>
        <path d="M423.37,130.61a34.46,34.46,0,0,1,30.5-34.09,79.77,79.77,0,0,1,9.39-.56H679.17a80.09,80.09,0,0,1,9.39.56,34.46,34.46,0,0,1,30.51,34.09V667.54a34.46,34.46,0,0,1-30.5,34.08,79.56,79.56,0,0,1-9.39.56H463.27a80.07,80.07,0,0,1-9.38-.55,34.46,34.46,0,0,1-30.51-34.09Z" transform="translate(-418.3 -92.32)" style="fill: #b5b6b7;fill-rule: evenodd"/>
        <path d="M423.44,130.59a34.38,34.38,0,0,1,30.51-34,81.21,81.21,0,0,1,9.39-.55H679.11a81.66,81.66,0,0,1,9.38.54,34.38,34.38,0,0,1,30.53,34v537a34.38,34.38,0,0,1-30.51,34,81.42,81.42,0,0,1-9.39.55H463.34a81.5,81.5,0,0,1-9.38-.54,34.38,34.38,0,0,1-30.53-34Z" transform="translate(-418.3 -92.32)" style="fill: #b7b7b8;fill-rule: evenodd"/>
        <path d="M423.5,130.57A34.3,34.3,0,0,1,454,96.63a82.91,82.91,0,0,1,9.38-.54H679.06a83.43,83.43,0,0,1,9.38.53A34.3,34.3,0,0,1,719,130.57v537a34.3,34.3,0,0,1-30.53,33.94,82.93,82.93,0,0,1-9.38.54H463.42a83.51,83.51,0,0,1-9.37-.53A34.3,34.3,0,0,1,423.5,667.6Z" transform="translate(-418.3 -92.32)" style="fill: #b8b9ba;fill-rule: evenodd"/>
        <path d="M423.57,130.56a34.22,34.22,0,0,1,30.54-33.87,84.77,84.77,0,0,1,9.38-.52H679a85.38,85.38,0,0,1,9.37.52,34.22,34.22,0,0,1,30.56,33.88V667.62a34.22,34.22,0,0,1-30.55,33.87A84.74,84.74,0,0,1,679,702H463.5a85.32,85.32,0,0,1-9.37-.52,34.22,34.22,0,0,1-30.56-33.88Z" transform="translate(-418.3 -92.32)" style="fill: #babbbc;fill-rule: evenodd"/>
        <path d="M423.63,130.54a34.14,34.14,0,0,1,30.56-33.8,86.63,86.63,0,0,1,9.37-.51H678.95a87.06,87.06,0,0,1,9.37.51,34.14,34.14,0,0,1,30.57,33.81V667.65a34.14,34.14,0,0,1-30.56,33.8A86.9,86.9,0,0,1,679,702H463.57a87.3,87.3,0,0,1-9.37-.51,34.14,34.14,0,0,1-30.57-33.8Z" transform="translate(-418.3 -92.32)" style="fill: #bcbcbd;fill-rule: evenodd"/>
        <path d="M423.7,130.52a34.06,34.06,0,0,1,30.58-33.73,88.63,88.63,0,0,1,9.37-.5H678.89a89.06,89.06,0,0,1,9.36.5,34.06,34.06,0,0,1,30.59,33.73V667.68a34.06,34.06,0,0,1-30.58,33.73,88.64,88.64,0,0,1-9.37.5H463.65a89,89,0,0,1-9.36-.5,34.06,34.06,0,0,1-30.59-33.73Z" transform="translate(-418.3 -92.32)" style="fill: #bdbebf;fill-rule: evenodd"/>
        <path d="M423.76,130.51a34,34,0,0,1,30.59-33.66,90.71,90.71,0,0,1,9.36-.49H678.84a91.21,91.21,0,0,1,9.36.48,34,34,0,0,1,30.61,33.66v537.2a34,34,0,0,1-30.59,33.66,90.76,90.76,0,0,1-9.36.49H463.72a91.18,91.18,0,0,1-9.35-.48,34,34,0,0,1-30.6-33.66Z" transform="translate(-418.3 -92.32)" style="fill: #bfbfc0;fill-rule: evenodd"/>
        <path d="M423.83,130.49A33.9,33.9,0,0,1,454.44,96.9a92.79,92.79,0,0,1,9.36-.48h215a93.43,93.43,0,0,1,9.35.47,33.91,33.91,0,0,1,30.62,33.59V667.74a33.9,33.9,0,0,1-30.61,33.59,92.9,92.9,0,0,1-9.36.48h-215a93.41,93.41,0,0,1-9.35-.47,33.9,33.9,0,0,1-30.62-33.59Z" transform="translate(-418.3 -92.32)" style="fill: #c0c1c2;fill-rule: evenodd"/>
        <path d="M423.89,130.47A33.83,33.83,0,0,1,454.52,97c1.2-.3,8.06-.46,9.35-.46H678.73c1.29,0,8.15.16,9.35.46a33.83,33.83,0,0,1,30.64,33.52V667.76a33.83,33.83,0,0,1-30.63,33.52c-1.2.3-8.06.46-9.35.46H463.88c-1.28,0-8.15-.16-9.34-.46a33.83,33.83,0,0,1-30.64-33.52Z" transform="translate(-418.3 -92.32)" style="fill: #c2c2c3;fill-rule: evenodd"/>
        <path d="M424,130.46A33.75,33.75,0,0,1,454.6,97c1.16-.29,8.09-.45,9.34-.45H678.67c1.25,0,8.18.16,9.34.45a33.75,33.75,0,0,1,30.65,33.45V667.79A33.75,33.75,0,0,1,688,701.24c-1.16.29-8.09.45-9.34.45H464c-1.25,0-8.18-.16-9.34-.45A33.75,33.75,0,0,1,424,667.79Z" transform="translate(-418.3 -92.32)" style="fill: #c3c4c5;fill-rule: evenodd"/>
        <path d="M424,130.44a33.67,33.67,0,0,1,30.66-33.38c1.13-.29,8.12-.44,9.34-.44h214.6c1.22,0,8.21.15,9.34.44a33.67,33.67,0,0,1,30.67,33.38V667.82A33.67,33.67,0,0,1,688,701.2c-1.13.29-8.12.44-9.34.44H464c-1.22,0-8.2-.15-9.33-.44A33.67,33.67,0,0,1,424,667.82Z" transform="translate(-418.3 -92.32)" style="fill: #c5c5c6;fill-rule: evenodd"/>
        <path d="M424.09,130.42a33.59,33.59,0,0,1,30.67-33.31c1.1-.28,8.14-.43,9.33-.43H678.56c1.19,0,8.23.15,9.33.43a33.6,33.6,0,0,1,30.69,33.31V667.85a33.59,33.59,0,0,1-30.68,33.31c-1.1.28-8.14.43-9.33.43H464.1c-1.19,0-8.23-.15-9.33-.42a33.6,33.6,0,0,1-30.68-33.31Z" transform="translate(-418.3 -92.32)" style="fill: #c7c7c8;fill-rule: evenodd"/>
        <path d="M424.15,130.41a33.52,33.52,0,0,1,30.69-33.24c1.07-.27,8.17-.42,9.33-.42H678.51c1.15,0,8.26.14,9.33.41a33.52,33.52,0,0,1,30.7,33.24V667.87a33.52,33.52,0,0,1-30.69,33.24c-1.07.27-8.17.42-9.33.42H464.18c-1.15,0-8.25-.14-9.33-.41a33.52,33.52,0,0,1-30.7-33.24Z" transform="translate(-418.3 -92.32)" style="fill: #c8c9c9;fill-rule: evenodd"/>
        <path d="M424.22,130.39a33.44,33.44,0,0,1,30.71-33.17c1-.26,8.2-.4,9.32-.4H678.46c1.12,0,8.28.14,9.32.4a33.45,33.45,0,0,1,30.72,33.17V667.9a33.44,33.44,0,0,1-30.71,33.16c-1,.26-8.2.4-9.32.4H464.25c-1.12,0-8.28-.14-9.32-.4a33.44,33.44,0,0,1-30.72-33.17Z" transform="translate(-418.3 -92.32)" style="fill: #cacacb;fill-rule: evenodd"/>
        <path d="M424.29,130.37A33.36,33.36,0,0,1,455,97.28c1-.26,8.23-.39,9.32-.39H678.4c1.09,0,8.31.14,9.32.39a33.37,33.37,0,0,1,30.73,33.1V667.93A33.36,33.36,0,0,1,687.73,701c-1,.26-8.23.39-9.32.39H464.33c-1.09,0-8.31-.13-9.31-.39a33.37,33.37,0,0,1-30.73-33.1Z" transform="translate(-418.3 -92.32)" style="fill: #cbcccc;fill-rule: evenodd"/>
        <path d="M424.35,130.36a33.29,33.29,0,0,1,30.74-33c1-.25,8.26-.38,9.31-.38H678.35c1.05,0,8.33.13,9.31.38a33.29,33.29,0,0,1,30.75,33V668a33.29,33.29,0,0,1-30.74,33c-1,.25-8.26.38-9.31.38H464.41c-1.05,0-8.33-.13-9.31-.38a33.29,33.29,0,0,1-30.75-33Z" transform="translate(-418.3 -92.32)" style="fill: #cdcdce;fill-rule: evenodd"/>
        <path d="M424.42,130.34a33.21,33.21,0,0,1,30.75-33c1-.24,8.28-.37,9.31-.37H678.29c1,0,8.36.13,9.31.37a33.22,33.22,0,0,1,30.76,33V668a33.21,33.21,0,0,1-30.76,33c-1,.24-8.28.37-9.31.37H464.48c-1,0-8.36-.13-9.31-.37a33.21,33.21,0,0,1-30.76-33Z" transform="translate(-418.3 -92.32)" style="fill: #cecfcf;fill-rule: evenodd"/>
        <path d="M424.48,130.32a33.14,33.14,0,0,1,30.77-32.88c.92-.23,8.31-.36,9.3-.36H678.24c1,0,8.38.12,9.3.36a33.14,33.14,0,0,1,30.78,32.88V668a33.14,33.14,0,0,1-30.77,32.88c-.92.23-8.31.36-9.3.36H464.56c-1,0-8.38-.12-9.3-.35A33.14,33.14,0,0,1,424.48,668Z" transform="translate(-418.3 -92.32)" style="fill: #d0d0d1;fill-rule: evenodd"/>
        <path d="M424.54,130.31a33.06,33.06,0,0,1,30.79-32.81c.89-.23,8.34-.34,9.3-.34H678.18c1,0,8.41.12,9.3.34a33.07,33.07,0,0,1,30.8,32.81V668a33.06,33.06,0,0,1-30.79,32.81c-.89.22-8.34.34-9.3.34H464.64c-1,0-8.41-.12-9.3-.34A33.06,33.06,0,0,1,424.54,668Z" transform="translate(-418.3 -92.32)" style="fill: #d2d2d3;fill-rule: evenodd"/>
        <path d="M424.61,130.29a33,33,0,0,1,30.8-32.74c.86-.22,8.37-.33,9.29-.33H678.13c.92,0,8.44.11,9.29.33a33,33,0,0,1,30.81,32.74V668.07a33,33,0,0,1-30.81,32.74c-.86.22-8.37.33-9.29.33H464.71c-.92,0-8.43-.11-9.29-.33a33,33,0,0,1-30.81-32.74Z" transform="translate(-418.3 -92.32)" style="fill: #d3d3d4;fill-rule: evenodd"/>
        <path d="M424.67,130.27A32.91,32.91,0,0,1,455.49,97.6c.83-.21,8.39-.32,9.29-.32H678.07c.89,0,8.46.11,9.29.32a32.92,32.92,0,0,1,30.83,32.67V668.09a32.92,32.92,0,0,1-30.82,32.67c-.83.21-8.39.32-9.29.32H464.79c-.89,0-8.46-.11-9.29-.32a32.92,32.92,0,0,1-30.83-32.67Z" transform="translate(-418.3 -92.32)" style="fill: #d5d5d6;fill-rule: evenodd"/>
        <path d="M424.74,130.26a32.84,32.84,0,0,1,30.83-32.6c.8-.2,8.42-.31,9.28-.31H678c.86,0,8.49.11,9.28.31a32.84,32.84,0,0,1,30.85,32.6V668.12a32.84,32.84,0,0,1-30.84,32.6c-.8.2-8.42.31-9.28.31H464.86c-.86,0-8.49-.11-9.28-.31a32.84,32.84,0,0,1-30.84-32.6Z" transform="translate(-418.3 -92.32)" style="fill: #d6d7d7;fill-rule: evenodd"/>
        <path d="M424.81,130.24a32.77,32.77,0,0,1,30.85-32.53c.77-.19,8.45-.3,9.28-.3H678c.82,0,8.51.1,9.28.3a32.77,32.77,0,0,1,30.86,32.53V668.15a32.77,32.77,0,0,1-30.85,32.53c-.77.19-8.45.3-9.28.3h-213c-.82,0-8.51-.1-9.28-.29a32.77,32.77,0,0,1-30.86-32.53Z" transform="translate(-418.3 -92.32)" style="fill: #d8d8d9;fill-rule: evenodd"/>
        <path d="M424.87,130.22a32.69,32.69,0,0,1,30.87-32.46c.74-.19,8.48-.29,9.27-.29h212.9c.79,0,8.54.1,9.27.28a32.7,32.7,0,0,1,30.88,32.46v538a32.69,32.69,0,0,1-30.87,32.46c-.74.19-8.48.29-9.27.29H465c-.79,0-8.54-.1-9.27-.28a32.69,32.69,0,0,1-30.87-32.46Z" transform="translate(-418.3 -92.32)" style="fill: #d9dada;fill-rule: evenodd"/>
        <path d="M424.94,130.21a32.62,32.62,0,0,1,30.88-32.39c.71-.18,8.51-.27,9.27-.27H677.85c.76,0,8.57.09,9.27.27A32.62,32.62,0,0,1,718,130.21v538a32.62,32.62,0,0,1-30.89,32.39c-.7.18-8.51.27-9.27.27H465.09c-.76,0-8.56-.09-9.27-.27a32.62,32.62,0,0,1-30.89-32.39Z" transform="translate(-418.3 -92.32)" style="fill: #dbdbdc;fill-rule: evenodd"/>
        <path d="M425,130.19a32.55,32.55,0,0,1,30.9-32.32c.67-.17,8.53-.26,9.26-.26H677.8c.73,0,8.59.09,9.26.26A32.55,32.55,0,0,1,718,130.19v538a32.55,32.55,0,0,1-30.9,32.32c-.67.17-8.53.26-9.26.26H465.17c-.72,0-8.59-.09-9.26-.26A32.55,32.55,0,0,1,425,668.23Z" transform="translate(-418.3 -92.32)" style="fill: #ddd;fill-rule: evenodd"/>
        <path d="M425.07,130.17A32.47,32.47,0,0,1,456,97.93c.64-.16,8.56-.25,9.26-.25H677.74c.69,0,8.62.09,9.26.25a32.48,32.48,0,0,1,30.92,32.25V668.26A32.48,32.48,0,0,1,687,700.51c-.64.16-8.56.25-9.25.25H465.25c-.69,0-8.62-.09-9.26-.25a32.48,32.48,0,0,1-30.92-32.25Z" transform="translate(-418.3 -92.32)" style="fill: #dededf;fill-rule: evenodd"/>
        <path d="M425.13,130.16A32.4,32.4,0,0,1,456.06,98c.61-.16,8.59-.24,9.25-.24H677.69c.66,0,8.64.08,9.25.24a32.4,32.4,0,0,1,30.94,32.18V668.29a32.4,32.4,0,0,1-30.93,32.17c-.61.16-8.59.24-9.25.24H465.32c-.66,0-8.64-.08-9.25-.24a32.4,32.4,0,0,1-30.94-32.17Z" transform="translate(-418.3 -92.32)" style="fill: #e0e0e0;fill-rule: evenodd"/>
        <path d="M425.2,130.14A32.33,32.33,0,0,1,456.14,98c.58-.15,8.62-.23,9.24-.23H677.63c.63,0,8.67.08,9.25.22a32.33,32.33,0,0,1,31,32.11V668.32a32.33,32.33,0,0,1-31,32.1c-.58.15-8.62.23-9.25.23H465.4c-.63,0-8.67-.08-9.25-.22a32.33,32.33,0,0,1-31-32.1Z" transform="translate(-418.3 -92.32)" style="fill: #e1e1e2;fill-rule: evenodd"/>
        <path d="M425.26,130.12a32.26,32.26,0,0,1,31-32c.55-.14,8.64-.21,9.24-.21H677.58c.59,0,8.69.07,9.24.21a32.26,32.26,0,0,1,31,32V668.34a32.26,32.26,0,0,1-31,32c-.55.14-8.65.21-9.24.21H465.47c-.59,0-8.69-.07-9.24-.21a32.26,32.26,0,0,1-31-32Z" transform="translate(-418.3 -92.32)" style="fill: #e3e3e3;fill-rule: evenodd"/>
        <path d="M425.33,130.1a32.18,32.18,0,0,1,31-32c.52-.13,8.67-.2,9.23-.2h212c.56,0,8.72.07,9.24.2a32.19,32.19,0,0,1,31,32V668.37a32.19,32.19,0,0,1-31,32c-.52.13-8.67.2-9.23.2h-212c-.56,0-8.72-.07-9.24-.2a32.19,32.19,0,0,1-31-32Z" transform="translate(-418.3 -92.32)" style="fill: #e4e5e5;fill-rule: evenodd"/>
        <path d="M425.39,130.09a32.11,32.11,0,0,1,31-31.89c.49-.12,8.7-.19,9.23-.19H677.47c.53,0,8.75.07,9.23.19a32.12,32.12,0,0,1,31,31.89V668.4a32.12,32.12,0,0,1-31,31.89c-.49.12-8.7.19-9.23.19H465.63c-.53,0-8.74-.07-9.23-.19a32.11,32.11,0,0,1-31-31.89Z" transform="translate(-418.3 -92.32)" style="fill: #e6e6e6;fill-rule: evenodd"/>
        <path d="M425.46,130.07a32,32,0,0,1,31-31.82c.46-.12,8.73-.18,9.22-.18H677.42c.49,0,8.77.06,9.23.18a32,32,0,0,1,31,31.82V668.43a32,32,0,0,1-31,31.82c-.46.12-8.73.18-9.22.18H465.7c-.49,0-8.77-.06-9.23-.18a32,32,0,0,1-31-31.82Z" transform="translate(-418.3 -92.32)" style="fill: #e7e8e8;fill-rule: evenodd"/>
        <path d="M425.52,130.05a32,32,0,0,1,31-31.75c.43-.11,8.76-.17,9.22-.17H677.36c.46,0,8.8.06,9.22.17a32,32,0,0,1,31,31.75v538.4a32,32,0,0,1-31,31.75c-.43.11-8.76.17-9.22.17H465.78c-.46,0-8.79-.06-9.22-.17a32,32,0,0,1-31-31.75Z" transform="translate(-418.3 -92.32)" style="fill: #e9e9ea;fill-rule: evenodd"/>
        <path d="M425.59,130a31.9,31.9,0,0,1,31-31.68c.4-.1,8.78-.15,9.21-.15H677.31c.43,0,8.82.05,9.22.15A31.91,31.91,0,0,1,717.58,130V668.48a31.9,31.9,0,0,1-31,31.68c-.4.1-8.78.15-9.21.15H465.85c-.43,0-8.82-.05-9.22-.15a31.9,31.9,0,0,1-31-31.68Z" transform="translate(-418.3 -92.32)" style="fill: #ebebeb;fill-rule: evenodd"/>
        <path d="M425.65,130a31.83,31.83,0,0,1,31.06-31.61c.37-.09,8.81-.14,9.21-.14H677.25c.4,0,8.85,0,9.21.14A31.83,31.83,0,0,1,717.53,130V668.51a31.83,31.83,0,0,1-31.06,31.61c-.37.09-8.81.14-9.21.14H465.93c-.4,0-8.85,0-9.21-.14a31.83,31.83,0,0,1-31.07-31.61Z" transform="translate(-418.3 -92.32)" style="fill: #ececed;fill-rule: evenodd"/>
        <path d="M425.72,130a31.76,31.76,0,0,1,31.08-31.54c.34-.09,8.84-.13,9.2-.13H677.2c.36,0,8.87,0,9.21.13A31.76,31.76,0,0,1,717.49,130V668.54a31.76,31.76,0,0,1-31.08,31.54c-.34.09-8.84.13-9.2.13H466c-.36,0-8.87,0-9.21-.13a31.76,31.76,0,0,1-31.08-31.54Z" transform="translate(-418.3 -92.32)" style="fill: #eee;fill-rule: evenodd"/>
        <path d="M425.78,130a31.69,31.69,0,0,1,31.09-31.47c.31-.08,8.87-.12,9.2-.12H677.14c.33,0,8.9,0,9.21.12A31.69,31.69,0,0,1,717.45,130V668.57A31.69,31.69,0,0,1,686.35,700c-.31.08-8.87.12-9.2.12H466.08c-.33,0-8.9,0-9.2-.12a31.69,31.69,0,0,1-31.1-31.47Z" transform="translate(-418.3 -92.32)" style="fill: #efeff0;fill-rule: evenodd"/>
        <path d="M425.85,130A31.62,31.62,0,0,1,457,98.57c.28-.07,8.89-.11,9.19-.11H677.09c.3,0,8.92,0,9.2.11A31.63,31.63,0,0,1,717.4,130V668.59A31.62,31.62,0,0,1,686.29,700c-.28.07-8.89.11-9.19.11H466.16c-.3,0-8.92,0-9.2-.11a31.62,31.62,0,0,1-31.11-31.4Z" transform="translate(-418.3 -92.32)" style="fill: #f1f1f1;fill-rule: evenodd"/>
        <path d="M425.91,130A31.55,31.55,0,0,1,457,98.63c.25-.06,8.92-.1,9.19-.1H677c.26,0,9,0,9.2.09A31.56,31.56,0,0,1,717.36,130V668.62a31.56,31.56,0,0,1-31.13,31.33c-.25.06-8.92.09-9.19.09H466.23c-.26,0-8.95,0-9.19-.09a31.55,31.55,0,0,1-31.13-31.33Z" transform="translate(-418.3 -92.32)" style="fill: #f2f3f3;fill-rule: evenodd"/>
        <path d="M426,129.94a31.48,31.48,0,0,1,31.14-31.25c.21-.05,9-.08,9.18-.08H677c.23,0,9,0,9.19.08a31.49,31.49,0,0,1,31.15,31.26V668.65a31.49,31.49,0,0,1-31.14,31.25c-.21.05-9,.08-9.18.08H466.31c-.23,0-9,0-9.19-.08A31.48,31.48,0,0,1,426,668.65Z" transform="translate(-418.3 -92.32)" style="fill: #f4f4f4;fill-rule: evenodd"/>
        <path d="M426,129.92A31.42,31.42,0,0,1,457.2,98.74c.18,0,9-.07,9.18-.07H676.92c.2,0,9,0,9.19.07a31.42,31.42,0,0,1,31.16,31.18V668.68a31.42,31.42,0,0,1-31.16,31.18c-.18,0-9,.07-9.18.07H466.39c-.2,0-9,0-9.18-.07A31.42,31.42,0,0,1,426,668.68Z" transform="translate(-418.3 -92.32)" style="fill: #f6f6f6;fill-rule: evenodd"/>
        <path d="M426.11,129.9a31.35,31.35,0,0,1,31.17-31.11c.15,0,9-.06,9.17-.06H676.87c.17,0,9,0,9.18.06a31.35,31.35,0,0,1,31.18,31.11V668.7A31.35,31.35,0,0,1,686,699.82c-.15,0-9,.06-9.17.06H466.46c-.16,0-9,0-9.18-.06a31.35,31.35,0,0,1-31.18-31.11Z" transform="translate(-418.3 -92.32)" style="fill: #f7f7f7;fill-rule: evenodd"/>
        <path d="M426.17,129.89a31.28,31.28,0,0,1,31.19-31c.12,0,9,0,9.17,0H676.81c.13,0,9.05,0,9.18,0a31.28,31.28,0,0,1,31.19,31V668.73a31.28,31.28,0,0,1-31.19,31c-.12,0-9,0-9.17,0H466.54c-.13,0-9.05,0-9.17,0a31.28,31.28,0,0,1-31.19-31Z" transform="translate(-418.3 -92.32)" style="fill: #f9f9f9;fill-rule: evenodd"/>
        <path d="M426.24,129.87a31.21,31.21,0,0,1,31.21-31c.09,0,9.06,0,9.16,0H676.76c.1,0,9.08,0,9.17,0a31.21,31.21,0,0,1,31.21,31V668.76a31.21,31.21,0,0,1-31.21,31c-.09,0-9.06,0-9.16,0H466.61c-.1,0-9.08,0-9.17,0a31.21,31.21,0,0,1-31.21-31Z" transform="translate(-418.3 -92.32)" style="fill: #fafafa;fill-rule: evenodd"/>
        <path d="M426.3,129.85A31.14,31.14,0,0,1,457.53,99c.06,0,9.09,0,9.15,0h210c.07,0,9.1,0,9.17,0a31.15,31.15,0,0,1,31.23,30.9V668.79a31.15,31.15,0,0,1-31.23,30.9c-.06,0-9.09,0-9.15,0h-210c-.07,0-9.1,0-9.16,0a31.15,31.15,0,0,1-31.22-30.9Z" transform="translate(-418.3 -92.32)" style="fill: #fcfcfc;fill-rule: evenodd"/>
        <path d="M426.37,129.84A31.08,31.08,0,0,1,457.61,99h228.2a31.08,31.08,0,0,1,31.24,30.83v539a31.08,31.08,0,0,1-31.24,30.83H457.61a31.08,31.08,0,0,1-31.24-30.83Z" transform="translate(-418.3 -92.32)" style="fill: #fdfdfd;fill-rule: evenodd"/>
        <path d="M717,668.84c0,17-14,30.76-31.26,30.76H457.69a31,31,0,0,1-31.26-30.76v-539a31,31,0,0,1,31.26-30.76H685.75C703,99.06,717,112.83,717,129.82Z" transform="translate(-418.3 -92.32)" style="fill: #fff;fill-rule: evenodd"/>
      </g>
      <path d="M715.13,670.91A31,31,0,0,1,684,701.77H457.1A31,31,0,0,1,426,670.91V130.09a31,31,0,0,1,31.1-30.86H684a31,31,0,0,1,31.1,30.86Z" transform="translate(-418.3 -92.32)" style="fill-rule: evenodd;fill: url(#Carbon_04-2)"/>
      <rect x="18.83" y="68.59" width="268" height="476.52" style="fill: #fff"/>
      <g>
        <g>
          <path d="M570.76,689.55a20.83,20.83,0,1,1,20.82-20.83A20.85,20.85,0,0,1,570.76,689.55Z" transform="translate(-418.3 -92.32)" style="fill: #454545"/>
          <path d="M570.76,689.55a20.83,20.83,0,1,1,20.82-20.83A20.85,20.85,0,0,1,570.76,689.55Z" transform="translate(-418.3 -92.32)" style="mix-blend-mode: multiply;fill: url(#New_Gradient_Swatch_7)"/>
        </g>
        <g>
          <circle cx="152.46" cy="576.41" r="19.22" style="fill: url(#Carbon_04-3)"/>
          <path d="M570.76,650.25a18.47,18.47,0,1,1-18.47,18.47,18.49,18.49,0,0,1,18.47-18.47m0-.75A19.22,19.22,0,1,0,590,668.72a19.22,19.22,0,0,0-19.22-19.22Z" transform="translate(-418.3 -92.32)" style="fill: #2b2b2b"/>
        </g>
      </g>
      <g>
        <g>
          <g>
            <circle cx="111.45" cy="44.31" r="4.63" style="opacity: 0.30000000000000004;fill: url(#New_Gradient_Swatch_8)"/>
            <path d="M529.75,132a4.63,4.63,0,1,1-4.62,4.62,4.63,4.63,0,0,1,4.63-4.62m0-.12a4.75,4.75,0,1,0,4.75,4.75,4.75,4.75,0,0,0-4.75-4.75Z" transform="translate(-418.3 -92.32)" style="fill: url(#New_Gradient_Swatch_12)"/>
          </g>
          <circle cx="111.45" cy="44.31" r="4.27" style="fill: url(#New_Gradient_Swatch_3)"/>
        </g>
        <g>
          <g>
            <circle cx="152.95" cy="27.38" r="2.52" style="opacity: 0.30000000000000004;fill: url(#New_Gradient_Swatch_8-2)"/>
            <path d="M571.25,117.18a2.52,2.52,0,1,1-2.52,2.52,2.52,2.52,0,0,1,2.52-2.52m0-.07a2.58,2.58,0,1,0,2.58,2.58,2.59,2.59,0,0,0-2.58-2.58Z" transform="translate(-418.3 -92.32)" style="fill: url(#New_Gradient_Swatch_4)"/>
          </g>
          <circle cx="152.95" cy="27.38" r="2.32" style="fill: url(#New_Gradient_Swatch_3-2)"/>
        </g>
        <g>
          <path d="M550.4,138.72a1.62,1.62,0,1,1,0-3.24H592.8a1.62,1.62,0,1,1,0,3.24Z" transform="translate(-418.3 -92.32)"/>
          <path d="M550.4,138.72a1.62,1.62,0,1,1,0-3.24H592.8a1.62,1.62,0,1,1,0,3.24Z" transform="translate(-418.3 -92.32)" style="opacity: 0.30000000000000004;mix-blend-mode: screen"/>
        </g>
      </g>
    </g>
  </g>
</svg>
