<svg id="Layer_1" data-name="Layer 1" xmlns="http://www.w3.org/2000/svg" viewBox="0 0 205.25 83.13"><defs><style>.cls-1,.cls-2{fill:#fff;}.cls-2{fill-rule:evenodd;}</style></defs><title>Position2_logo</title><path class="cls-1" d="M197.4,341.94V305.48H203v36.46H197.4Zm54.37-13.33a14.64,14.64,0,0,1-20.09,0,13.88,13.88,0,0,1,0-19.54,14.63,14.63,0,0,1,20.09,0,13.88,13.88,0,0,1,0,19.54h0Zm-4-16.07a8.74,8.74,0,0,0-12.11,0,9.52,9.52,0,0,0,0,12.6,8.74,8.74,0,0,0,12.11,0,9.51,9.51,0,0,0,0-12.6h0Zm20.27-2.74a6.47,6.47,0,0,0-3.27.73,2.37,2.37,0,0,0-1.26,2.18,2,2,0,0,0,1.31,1.91,12.49,12.49,0,0,0,2.54.85q1.63,0.4,2.89.8t2.44,0.9a15.81,15.81,0,0,1,2.54,1.41,6.28,6.28,0,0,1,2.71,5.62,7.52,7.52,0,0,1-2.76,6.1,10.74,10.74,0,0,1-7.08,2.28,19,19,0,0,1-6.05-1.05,18.19,18.19,0,0,1-5.55-3l2.71-4.37q4.67,3.52,9,3.52a4.71,4.71,0,0,0,3-.88,2.73,2.73,0,0,0,1.1-2.23q0-2-5.32-3.62a6.24,6.24,0,0,0-.6-0.2q-8.34-2.26-8.34-7.53a7.15,7.15,0,0,1,2.89-6,11.93,11.93,0,0,1,7.51-2.24,15.63,15.63,0,0,1,8.74,2.71L275.13,312a12.59,12.59,0,0,0-7.08-2.16h0Zm18.38-9.64a3.52,3.52,0,1,1,1.06-2.51,3.43,3.43,0,0,1-1.06,2.51h0Zm0.25,32h-5.63V305.48h5.63V332.2h0Zm12.81-5.6a3.56,3.56,0,0,0,2.81,1.13,4.79,4.79,0,0,0,3.47-1.76l2.31,4a9.59,9.59,0,0,1-6.55,2.66,8.44,8.44,0,0,1-6.13-2.48,9,9,0,0,1-2.54-6.7V310H289.5v-4.52h3.37v-8.39h5.63v8.39h7V310h-7v13.56a4.39,4.39,0,0,0,1,3h0Zm15.17-26.44a3.52,3.52,0,1,1,1.05-2.51,3.44,3.44,0,0,1-1.05,2.51h0Zm0.25,32h-5.63V305.48h5.63V332.2h0Zm27.22-3.59a14.64,14.64,0,0,1-20.09,0,13.88,13.88,0,0,1,0-19.54,14.63,14.63,0,0,1,20.09,0,13.88,13.88,0,0,1,0,19.54h0Zm-4-16.07a8.74,8.74,0,0,0-12.11,0,9.52,9.52,0,0,0,0,12.6,8.74,8.74,0,0,0,12.11,0,9.52,9.52,0,0,0,0-12.6h0ZM221.79,328.61a14.64,14.64,0,0,1-20.09,0,13.88,13.88,0,0,1,0-19.54,14.63,14.63,0,0,1,20.09,0,13.88,13.88,0,0,1,0,19.54h0Zm-4-16.07a8.74,8.74,0,0,0-12.1,0,9.51,9.51,0,0,0,0,12.6,8.74,8.74,0,0,0,12.1,0,9.51,9.51,0,0,0,0-12.6h0Z" transform="translate(-197.4 -258.81)"/><path class="cls-1" d="M356.44,311.46a7.63,7.63,0,0,1,5.26-2q6.35,0,6.35,7.65v15.2h5.83v-17q0-5.41-2.89-8.28a10.75,10.75,0,0,0-16.78,2.6v-5h-5.83V332.3h5.83v-15a7.45,7.45,0,0,1,2.24-5.85h0Z" transform="translate(-197.4 -258.81)"/><path class="cls-2" d="M359.59,258.81a13,13,0,1,1-12.94,13,12.95,12.95,0,0,1,12.94-13h0Z" transform="translate(-197.4 -258.81)"/><path class="cls-2" d="M332.94,264.53a9.56,9.56,0,1,1-9.53,9.56,9.55,9.55,0,0,1,9.53-9.56h0Z" transform="translate(-197.4 -258.81)"/><path class="cls-2" d="M318.27,280.06a5.52,5.52,0,1,1-5.52,5.52,5.52,5.52,0,0,1,5.52-5.52h0Z" transform="translate(-197.4 -258.81)"/><path class="cls-2" d="M385.91,309a16.8,16.8,0,1,1,16.75-16.8A16.77,16.77,0,0,1,385.91,309h0Zm6.59-11.48h-8.36l4.32-4.41a18.21,18.21,0,0,0,2.72-3.32,5.38,5.38,0,0,0,.74-2.72,5,5,0,0,0-1.74-4,6.1,6.1,0,0,0-4-1.46,7,7,0,0,0-3.77.92,9.2,9.2,0,0,0-2.68,2.74l2.51,1.45a4.41,4.41,0,0,1,3.77-2.32,3,3,0,0,1,2.14.78,2.47,2.47,0,0,1,.84,1.89,3.68,3.68,0,0,1-.79,2.19,29.8,29.8,0,0,1-2.66,3l-5.59,5.62v2.64H392.5v-3h0Z" transform="translate(-197.4 -258.81)"/></svg>